<svg width="39" height="40" viewBox="0 0 39 40" fill="none" xmlns="http://www.w3.org/2000/svg">
<path d="M38.2385 10.152C38.2006 9.39249 37.8588 8.67097 37.2892 8.13933L28.9727 0.734281C28.4031 0.202637 27.6436 -0.0631848 26.8841 0.0127644C26.0867 0.0887135 25.3652 0.430485 24.8715 0.962129L18.188 8.40515C17.4664 7.79755 16.593 7.49376 15.6437 7.53173C14.6563 7.60768 13.8209 7.98743 13.1373 8.70894L2.99814 20.0633C-1.33097 24.8861 -0.913246 32.2912 3.87155 36.5823L4.32725 37C6.4918 38.9367 9.22597 40 12.112 40C12.3779 40 12.6057 40 12.8715 39.962C15.9475 39.7722 18.7956 38.4051 20.8462 36.0886L31.0234 24.7342C31.6689 24.0127 32.0107 23.1013 31.9348 22.114C31.8968 21.1646 31.4791 20.3292 30.7955 19.6836L37.479 12.2406C38.0107 11.671 38.2765 10.9494 38.2385 10.152ZM4.59307 21.5064L14.7703 10.152C15.0361 9.84818 15.3778 9.69628 15.7576 9.65831C15.7956 9.65831 15.7956 9.65831 15.8335 9.65831C16.1753 9.65831 16.5171 9.77223 16.7829 10.0381L26.7702 18.9621L29.3145 21.2406C29.6183 21.5064 29.7702 21.8482 29.8082 22.2279C29.8462 22.6076 29.6943 22.9874 29.4284 23.2912L19.2513 34.6456C17.5804 36.5063 15.2259 37.6456 12.6817 37.7975C10.1374 37.9494 7.70698 37.076 5.80825 35.3671L5.31458 34.9874C1.4032 31.4557 1.06143 25.4178 4.59307 21.5064ZM24.5297 14.0634L19.8209 9.81021L26.5044 2.36719C26.6183 2.21529 26.8082 2.13934 27.036 2.13934C27.2259 2.13934 27.4158 2.17732 27.5677 2.32921L35.8841 9.77223C36.036 9.88616 36.112 10.076 36.112 10.3039C36.112 10.4937 36.074 10.6836 35.9221 10.8355L29.2006 18.2785L24.5297 14.0634Z" fill="#232731"/>
<path d="M26.2354 6.73191L23.9023 9.33224L25.9939 11.2088L28.327 8.60851L26.2354 6.73191Z" fill="#232731"/>
<path d="M29.501 9.64988L27.168 12.2506L29.2598 14.1272L31.5929 11.5265L29.501 9.64988Z" fill="#232731"/>
<path d="M8.9223 31.5696C9.6818 32.2531 10.6691 32.6329 11.6565 32.6329C11.7324 32.6329 11.8463 32.6329 11.9223 32.6329C13.0236 32.5569 14.0109 32.0632 14.7324 31.2658L20.9223 24.3924C22.4413 22.6835 22.2894 20.1012 20.6185 18.5823C19.783 17.8607 18.7577 17.481 17.6565 17.519C16.5932 17.5569 15.5299 18.0506 14.8084 18.8861L8.58053 25.7595C7.85902 26.5949 7.47927 27.6202 7.51724 28.7215C7.59319 29.8227 8.08686 30.848 8.9223 31.5696ZM17.6944 19.3417L17.7324 19.5696C18.2641 19.5316 18.7957 19.7215 19.2134 20.1012C20.0489 20.8607 20.1248 22.1519 19.3653 22.9873L13.1755 29.8607C12.416 30.6961 11.1628 30.7721 10.3274 30.0506L10.2894 30.0126C9.87167 29.6329 9.64382 29.1392 9.60585 28.6075C9.56787 28.0759 9.75775 27.5443 10.1375 27.1265L16.3273 20.2531C16.7071 19.8354 17.2008 19.6076 17.7324 19.5696L17.6944 19.3417Z" fill="#232731"/>
</svg>
