<svg width="32" height="40" viewBox="0 0 32 40" fill="none" xmlns="http://www.w3.org/2000/svg">
<mask id="path-1-inside-1" fill="white">
<path d="M22 0H0V22H2V2H20V9.43914C20 11.2308 21.8197 13 23.608 13H30.0226V38H14V40H32V11.0615L22 0ZM22 9.5V3L29 11.0615H23.608C22.7916 11.0615 22 10.3179 22 9.5Z"/>
<path d="M0.806067 38.8749C0.404899 38.4953 0.387401 37.8624 0.766983 37.4612L6.26534 31.6502C6.64492 31.249 7.27785 31.2315 7.67902 31.6111C8.08018 31.9907 8.09768 32.6236 7.7181 33.0248L2.21974 38.8358C1.84016 39.237 1.20723 39.2545 0.806067 38.8749Z"/>
<path d="M1.10382 29.2535L16.6419 21.8102C17.0537 21.6129 17.4927 22.0255 17.3213 22.4488L11.1051 37.8007C10.9459 38.1938 10.4004 38.2227 10.2006 37.8487L7.16852 32.1725C7.15638 32.1498 7.13591 32.1326 7.1114 32.1246L1.16441 30.1796C0.735829 30.0395 0.697156 29.4483 1.10382 29.2535Z"/>
</mask>
<path d="M22 0L23.4836 -1.34123L22.8881 -2H22V0ZM0 0V-2H-2V0H0ZM0 22H-2V24H0V22ZM2 22V24H4V22H2ZM2 2V0H0V2H2ZM20 2H22V0H20V2ZM30.0226 13H32.0226V11H30.0226V13ZM30.0226 38V40H32.0226V38H30.0226ZM14 38V36H12V38H14ZM14 40H12V42H14V40ZM32 40V42H34V40H32ZM32 11.0615H34V10.2915L33.4836 9.72027L32 11.0615ZM22 3L23.5101 1.68871L20 -2.35372V3H22ZM29 11.0615V13.0615H33.3854L30.5101 9.75022L29 11.0615ZM0.806067 38.8749L-0.568523 40.3277L0.806067 38.8749ZM0.766983 37.4612L-0.685774 36.0867L-0.685774 36.0867L0.766983 37.4612ZM6.26534 31.6502L7.7181 33.0248L7.7181 33.0248L6.26534 31.6502ZM7.67902 31.6111L6.30443 33.0639L7.67902 31.6111ZM7.7181 33.0248L9.17086 34.3994L7.7181 33.0248ZM2.21974 38.8358L0.766983 37.4612L0.766983 37.4612L2.21974 38.8358ZM1.10382 29.2535L1.96786 31.0572L1.96787 31.0572L1.10382 29.2535ZM16.6419 21.8102L15.7778 20.0065L15.7778 20.0065L16.6419 21.8102ZM17.3213 22.4488L19.1751 23.1994L19.1751 23.1994L17.3213 22.4488ZM11.1051 37.8007L9.25129 37.0501L9.25129 37.0501L11.1051 37.8007ZM10.2006 37.8487L11.9647 36.9063L11.9647 36.9063L10.2006 37.8487ZM7.16852 32.1725L5.40444 33.1149L5.40444 33.1149L7.16852 32.1725ZM7.1114 32.1246L6.48971 34.0255L6.48973 34.0255L7.1114 32.1246ZM1.16441 30.1796L1.78611 28.2787L1.7861 28.2787L1.16441 30.1796ZM22 -2H0V2H22V-2ZM-2 0V22H2V0H-2ZM0 24H2V20H0V24ZM4 22V2H0V22H4ZM2 4H20V0H2V4ZM18 2V9.43914H22V2H18ZM18 9.43914C18 10.9983 18.7715 12.3752 19.732 13.3184C20.6928 14.2619 22.0739 15 23.608 15V11C23.3537 11 22.9308 10.8534 22.5347 10.4645C22.1383 10.0752 22 9.67162 22 9.43914H18ZM23.608 15H30.0226V11H23.608V15ZM28.0226 13V38H32.0226V13H28.0226ZM30.0226 36H14V40H30.0226V36ZM12 38V40H16V38H12ZM14 42H32V38H14V42ZM34 40V11.0615H30V40H34ZM33.4836 9.72027L23.4836 -1.34123L20.5164 1.34123L30.5164 12.4027L33.4836 9.72027ZM24 9.5V3H20V9.5H24ZM20.4899 4.31129L27.4899 12.3728L30.5101 9.75022L23.5101 1.68871L20.4899 4.31129ZM29 9.06151H23.608V13.0615H29V9.06151ZM23.608 9.06151C23.7073 9.06151 23.7761 9.08371 23.8123 9.0995C23.8479 9.11504 23.8691 9.13144 23.8834 9.14516C23.8947 9.15607 24 9.26135 24 9.5H20C20 10.5566 20.5011 11.4426 21.1123 12.0298C21.7228 12.6163 22.6033 13.0615 23.608 13.0615V9.06151ZM2.18066 37.4222C2.58182 37.8017 2.59932 38.4347 2.21974 38.8358L-0.685774 36.0867C-1.82452 37.2902 -1.77203 39.1889 -0.568523 40.3277L2.18066 37.4222ZM2.21974 38.8358L7.7181 33.0248L4.81258 30.2756L-0.685774 36.0867L2.21974 38.8358ZM7.7181 33.0248C7.33852 33.426 6.70559 33.4435 6.30443 33.0639L9.0536 30.1584C7.8501 29.0196 5.95133 29.0721 4.81258 30.2756L7.7181 33.0248ZM6.30443 33.0639C5.90326 32.6843 5.88576 32.0514 6.26534 31.6502L9.17086 34.3994C10.3096 33.1959 10.2571 31.2971 9.0536 30.1584L6.30443 33.0639ZM6.26534 31.6502L0.766983 37.4612L3.6725 40.2104L9.17086 34.3994L6.26534 31.6502ZM0.766983 37.4612C1.14657 37.0601 1.77949 37.0426 2.18066 37.4222L-0.568523 40.3277C0.634975 41.4664 2.53374 41.4139 3.6725 40.2104L0.766983 37.4612ZM1.96787 31.0572L17.5059 23.6139L15.7778 20.0065L0.239773 27.4497L1.96787 31.0572ZM17.5059 23.6139C16.2704 24.2058 14.9534 22.968 15.4675 21.6982L19.1751 23.1994C20.0321 21.0831 17.837 19.0201 15.7778 20.0065L17.5059 23.6139ZM15.4675 21.6982L9.25129 37.0501L12.9589 38.5514L19.1751 23.1994L15.4675 21.6982ZM9.25129 37.0501C9.72879 35.8708 11.3653 35.7841 11.9647 36.9063L8.43654 38.791C9.43562 40.6613 12.1631 40.5168 12.9589 38.5514L9.25129 37.0501ZM11.9647 36.9063L8.93261 31.2302L5.40444 33.1149L8.43654 38.791L11.9647 36.9063ZM8.93261 31.2302C8.67747 30.7526 8.2477 30.392 7.73308 30.2237L6.48973 34.0255C6.02412 33.8733 5.63528 33.547 5.40444 33.1149L8.93261 31.2302ZM7.7331 30.2237L1.78611 28.2787L0.542706 32.0805L6.48971 34.0255L7.7331 30.2237ZM1.7861 28.2787C3.07184 28.6992 3.18785 30.4728 1.96786 31.0572L0.239775 27.4497C-1.79354 28.4238 -1.60018 31.3797 0.542707 32.0805L1.7861 28.2787Z" fill="#232731" mask="url(#path-1-inside-1)"/>
</svg>
